# xmcd CD database file
#
# Track frame offsets:
#	150
#	36540
#	62717
#	88482
#	113990
#	150252
#	179937
#	212617
#	246945
#	277205
#
# Disc length: 4187 seconds
#
# Revision: 12
# Processed by: cddbd v1.5.2PL0 Copyright (c) Steve Scherf et al.
# Submitted via: CDex 1.51
#
DISCID=9d10590a
DTITLE=Bill Evans Trio - But Beautiful
DYEAR=1974
DGENRE=Jazz
TTITLE0=Grandfather's Waltz
TTITLE1=Stan's Blues
TTITLE2=But Beautiful
TTITLE3=Emily
TTITLE4=Lover Man
TTITLE5=Funkallero
TTITLE6=The Peacocks
TTITLE7=You and the Night and the Music
TTITLE8=See-Saw
TTITLE9=The Two Lonely People
EXTD=YEAR: 1974
EXTT0=
EXTT1=
EXTT2=
EXTT3=
EXTT4=
EXTT5=
EXTT6=
EXTT7=
EXTT8=
EXTT9=
PLAYORDER=
